<?xml version="1.0" encoding="iso-8859-1"?>
<!-- Uploaded to: SVG Repo, www.svgrepo.com, Generator: SVG Repo Mixer Tools -->
<svg version="1.1" id="Layer_1" xmlns="http://www.w3.org/2000/svg" xmlns:xlink="http://www.w3.org/1999/xlink" 
	 viewBox="0 0 512.002 512.002" xml:space="preserve">
<rect x="105.913" y="223.591" style="fill:#F6C454;" width="286.731" height="251.039"/>
<rect x="47.615" y="196.227" style="fill:#FED159;" width="418.794" height="54.729"/>
<rect x="47.615" y="178.381" style="fill:#F6C454;" width="418.794" height="40.452"/>
<g>
	<polygon style="fill:#FED159;" points="257.012,9.027 499.815,147.083 499.815,196.223 14.209,196.223 14.209,147.083 	"/>
	<rect x="47.615" y="448.455" style="fill:#FED159;" width="418.794" height="54.729"/>
	<rect x="82.118" y="250.956" style="fill:#FED159;" width="66.626" height="197.5"/>
</g>
<rect x="82.118" y="250.956" style="fill:#F6C454;" width="23.795" height="197.5"/>
<rect x="223.699" y="250.956" style="fill:#FED159;" width="66.626" height="197.5"/>
<rect x="223.699" y="250.956" style="fill:#F6C454;" width="23.795" height="197.5"/>
<rect x="365.28" y="250.956" style="fill:#FED159;" width="66.626" height="197.5"/>
<g>
	<rect x="365.28" y="250.956" style="fill:#F6C454;" width="23.795" height="197.5"/>
	<rect x="82.118" y="250.956" style="fill:#F6C454;" width="66.626" height="28.554"/>
	<rect x="223.699" y="250.956" style="fill:#F6C454;" width="66.626" height="28.554"/>
	<rect x="365.28" y="250.956" style="fill:#F6C454;" width="66.626" height="28.554"/>
	<circle style="fill:#F6C454;" cx="257.012" cy="112.944" r="47.59"/>
</g>
<path d="M503.214,139.223L260.411,1.166c-2.735-1.555-6.086-1.555-8.821,0L114.012,79.392c-4.284,2.435-5.782,7.883-3.347,12.168
	c2.435,4.284,7.883,5.785,12.168,3.347l133.168-75.719l233.88,132.983v35.025H22.121V152.17l71.468-40.636
	c4.284-2.435,5.782-7.883,3.347-12.168c-2.434-4.284-7.882-5.781-12.168-3.347l-75.98,43.204c-2.79,1.586-4.513,4.547-4.513,7.757
	v49.141c0,4.928,3.994,8.923,8.923,8.923H37.68v45.806c0,4.928,3.994,8.923,8.923,8.923h25.58v179.653h-25.58
	c-4.929,0-8.923,3.995-8.923,8.923v54.729c0,4.928,3.994,8.923,8.923,8.923h311.193c4.929,0,8.923-3.995,8.923-8.923
	s-3.994-8.923-8.923-8.923H55.527v-36.882h400.948v36.882h-68.342c-4.929,0-8.923,3.995-8.923,8.923s3.994,8.923,8.923,8.923h77.265
	c4.929,0,8.923-3.995,8.923-8.923V448.35c0-4.928-3.994-8.923-8.923-8.923h-25.58V259.773h25.58c4.929,0,8.923-3.995,8.923-8.923
	v-45.806h24.483c4.929,0,8.923-3.995,8.923-8.923V146.98C507.727,143.771,506.004,140.809,503.214,139.223z M90.03,439.425V259.772
	h48.78v179.653H90.03z M213.764,259.772v179.653h-57.108V259.772H213.764z M231.611,439.425V259.772h48.78v179.653H231.611z
	 M355.345,259.772v179.653h-57.108V259.772H355.345z M421.972,439.425h-48.78V259.772h48.78V439.425z M456.475,241.925H55.527
	v-36.882h400.948V241.925z"/>
<path d="M256.001,74.17c21.322,0,38.667,17.347,38.667,38.667c0,4.928,3.994,8.923,8.923,8.923s8.923-3.995,8.923-8.923
	c0-31.161-25.353-56.513-56.513-56.513s-56.513,25.353-56.513,56.513s25.353,56.513,56.513,56.513
	c15.096,0,29.287-5.879,39.962-16.552c3.485-3.485,3.485-9.135,0-12.619c-3.486-3.485-9.135-3.485-12.62,0
	c-7.303,7.303-17.012,11.325-27.341,11.325c-21.322,0-38.667-17.347-38.667-38.667S234.679,74.17,256.001,74.17z"/>
</svg>